<?xml version="1.0" encoding="UTF-8" standalone="no"?>
<!-- Created with Inkscape (http://www.inkscape.org/) -->

<svg
   version="1.1"
   id="svg1"
   width="481.86667"
   height="489.33334"
   viewBox="0 0 481.86667 489.33334"
   sodipodi:docname="molecule.eps"
   xmlns:inkscape="http://www.inkscape.org/namespaces/inkscape"
   xmlns:sodipodi="http://sodipodi.sourceforge.net/DTD/sodipodi-0.dtd"
   xmlns="http://www.w3.org/2000/svg"
   xmlns:svg="http://www.w3.org/2000/svg">
  <defs
     id="defs1" />
  <sodipodi:namedview
     id="namedview1"
     pagecolor="#ffffff"
     bordercolor="#000000"
     borderopacity="0.25"
     inkscape:showpageshadow="2"
     inkscape:pageopacity="0.0"
     inkscape:pagecheckerboard="0"
     inkscape:deskcolor="#d1d1d1">
    <inkscape:page
       x="0"
       y="0"
       inkscape:label="1"
       id="page1"
       width="481.86667"
       height="489.33334"
       margin="0"
       bleed="0" />
  </sodipodi:namedview>
  <g
     id="g1"
     inkscape:groupmode="layer"
     inkscape:label="1">
    <g
       id="group-R5">
      <path
         id="path2"
         d="m 1702.19,1629.67 c -16.63,-20.68 -13.31,-50.95 7.41,-67.62 20.72,-16.67 51,-13.43 67.64,7.25 16.61,20.66 13.29,50.94 -7.43,67.61 -20.72,16.66 -51,13.41 -67.62,-7.24"
         style="fill:#3e3e3e;fill-opacity:1;fill-rule:nonzero;stroke:none"
         transform="matrix(0.13333333,0,0,-0.13333333,0,489.33333)" />
      <path
         id="path3"
         d="m 1807.9,2268.2 c -2.79,-29.23 -61.03,-639.36 -63.24,-662.87 l 643.96,167.97 z m -72.19,-670.93 c -0.57,1.25 -1.1,2.13 -0.96,3.61 3.01,32.03 61.28,642.4 64.6,677.26 0.37,3.8 4.86,5.61 7.76,3.15 637.68,-543.45 597.03,-507.18 596.08,-511.33 -0.96,-4.17 43.68,8.76 -661.99,-175.3 -2.23,-0.58 -4.53,0.54 -5.49,2.61"
         style="fill:#3d3d3d;fill-opacity:1;fill-rule:nonzero;stroke:none"
         transform="matrix(0.13333333,0,0,-0.13333333,0,489.33333)" />
      <path
         id="path4"
         d="m 1765.64,2308.59 c -17.07,-21.2 -13.67,-52.25 7.57,-69.34 21.25,-17.09 52.3,-13.75 69.35,7.46 17.06,21.21 13.68,52.26 -7.56,69.35 -21.25,17.09 -52.3,13.75 -69.36,-7.47"
         style="fill:#3e3e3e;fill-opacity:1;fill-rule:nonzero;stroke:none"
         transform="matrix(0.13333333,0,0,-0.13333333,0,489.33333)" />
      <path
         id="path5"
         d="m 2359.59,1802.61 c -17.35,-21.57 -13.86,-53.19 7.81,-70.61 21.64,-17.41 53.27,-14.05 70.61,7.52 17.36,21.56 13.86,53.18 -7.79,70.59 -21.65,17.42 -53.28,14.05 -70.63,-7.5"
         style="fill:#3e3e3e;fill-opacity:1;fill-rule:nonzero;stroke:none"
         transform="matrix(0.13333333,0,0,-0.13333333,0,489.33333)" />
      <path
         id="path6"
         d="m 1131.36,1878.56 168.1,-765.55 432.56,484.81 z m 160.85,-776.61 -172.13,783.93 c -0.84,3.81 3.07,6.94 6.61,5.28 650.63,-304.07 616.97,-287.17 617.72,-290.79 0.3,-1.46 -0.11,-2.98 -1.11,-4.1 l -442.94,-496.44 c -1.19,-1.34 -3.02,-1.89 -4.73,-1.43 -1.74,0.46 -3.05,1.85 -3.42,3.55"
         style="fill:#3d3d3d;fill-opacity:1;fill-rule:nonzero;stroke:none"
         transform="matrix(0.13333333,0,0,-0.13333333,0,489.33333)" />
      <path
         id="path7"
         d="m 1170.24,2668.66 -40.33,-773.76 665.2,382.77 z m -50.22,-781.94 41.2,790.46 c 0.08,1.67 1.05,3.16 2.53,3.94 1.49,0.77 3.28,0.7 4.69,-0.19 674.64,-422.13 640.65,-399.35 640.57,-403.52 -0.03,-1.65 -0.93,-3.18 -2.36,-4 l -679.56,-391.03 c -1.49,-0.86 -3.34,-0.84 -4.83,0.06 -1.48,0.93 -2.33,2.57 -2.24,4.28"
         style="fill:#3d3d3d;fill-opacity:1;fill-rule:nonzero;stroke:none"
         transform="matrix(0.13333333,0,0,-0.13333333,0,489.33333)" />
      <path
         id="path8"
         d="m 1084.1,1919.39 c -17.78,-22.1 -14.09,-54.59 8.25,-72.57 22.34,-17.97 54.87,-14.62 72.65,7.49 17.79,22.12 14.09,54.6 -8.25,72.57 -22.35,17.97 -54.87,14.62 -72.65,-7.49"
         style="fill:#3e3e3e;fill-opacity:1;fill-rule:nonzero;stroke:none"
         transform="matrix(0.13333333,0,0,-0.13333333,0,489.33333)" />
      <path
         id="path9"
         d="m 1813.24,2276.19 582.25,-496.33 122.59,753.35 c -6.13,-2.24 -700.31,-255.26 -704.84,-257.02 z m 582.6,-509.04 c -0.08,0.07 -592.17,504.78 -592.26,504.87 -2.37,1.9 -4.69,3.2 -4.2,6.39 0.54,3.49 2.89,3.65 13.45,7.76 739.12,269.45 708.8,258.46 710.46,258.64 3.01,0.33 5.54,-2.23 5.2,-5.22 l -0.42,-3.83 c -0.15,-1.4 -124.3,-766.34 -125.57,-767.91 -1.43,-1.77 -3.87,-2.48 -6.66,-0.7"
         style="fill:#3d3d3d;fill-opacity:1;fill-rule:nonzero;stroke:none"
         transform="matrix(0.13333333,0,0,-0.13333333,0,489.33333)" />
      <path
         id="path10"
         d="m 1747.13,1596.28 357.98,-548.95 c 15.45,38.73 268.62,672.94 286.23,717.14 z m 355.03,-561.73 c -387.49,594.21 -368.34,562.83 -366.97,566.35 1.29,3.35 -44.64,-9.62 661.96,174.86 2.94,0.78 5.93,-1.41 5.92,-4.58 -0.01,-1.33 0.11,-2.51 -0.34,-3.62 -21.65,-54.37 -277.48,-695.23 -292.05,-731.75 -0.91,-3.21 -4.85,-4.49 -7.48,-2.38 -0.4,0.31 -0.74,0.68 -1.04,1.12"
         style="fill:#3d3d3d;fill-opacity:1;fill-rule:nonzero;stroke:none"
         transform="matrix(0.13333333,0,0,-0.13333333,0,489.33333)" />
      <path
         id="path11"
         d="m 1798.49,2269.04 c -707.86,-406.88 -626.87,-360.09 -663.67,-382.05 l 601.06,-280.23 z m -676.17,-378.5 33.53,20.01 c 682.18,392.12 647,373.53 650.77,371.11 3.59,-2.3 6.74,44.24 -61.96,-682.46 -0.3,-3.25 -3.74,-5.2 -6.7,-3.82 l -615.22,286.81 c -3.43,1.6 -3.67,6.4 -0.42,8.35"
         style="fill:#3d3d3d;fill-opacity:1;fill-rule:nonzero;stroke:none"
         transform="matrix(0.13333333,0,0,-0.13333333,0,489.33333)" />
      <path
         id="path12"
         d="M 1738.95,1591.86 C 1294.98,1094.41 1366.57,1174.63 1306.06,1106.8 l 790.84,-64.17 z m -445.69,-486.27 c 5.91,7.97 -1.55,-0.71 51.12,58.37 420.08,470.65 392.06,440.62 395.52,440.36 1.47,-0.11 2.81,-0.9 3.6,-2.13 l 366.58,-562.48 c 0.99,-1.52 1.03,-3.44 0.1,-4.99 -0.91,-1.55 -2.65,-2.44 -4.44,-2.29 l -809.07,65.64 c -3.69,0.3 -5.62,4.55 -3.41,7.52"
         style="fill:#3d3d3d;fill-opacity:1;fill-rule:nonzero;stroke:none"
         transform="matrix(0.13333333,0,0,-0.13333333,0,489.33333)" />
      <path
         id="path13"
         d="m 2064.63,1070.51 c -18.22,-22.65 -14.45,-55.92 8.43,-74.319 22.89,-18.421 56.2,-14.98 74.44,7.669 18.21,22.64 14.42,55.93 -8.46,74.33 -22.88,18.41 -56.19,14.97 -74.41,-7.68"
         style="fill:#3e3e3e;fill-opacity:1;fill-rule:nonzero;stroke:none"
         transform="matrix(0.13333333,0,0,-0.13333333,0,489.33333)" />
      <path
         id="path14"
         d="m 1255.35,1136.36 c -18.87,-23.44 -15.62,-57.38 7.26,-75.79 22.88,-18.4 56.72,-14.3 75.58,9.16 18.88,23.44 15.63,57.37 -7.25,75.78 -22.88,18.41 -56.72,14.32 -75.59,-9.15"
         style="fill:#3e3e3e;fill-opacity:1;fill-rule:nonzero;stroke:none"
         transform="matrix(0.13333333,0,0,-0.13333333,0,489.33333)" />
      <path
         id="path15"
         d="m 2400.08,1762.03 -286.8,-718.65 757.29,173.25 z m -298.23,-726.49 c -0.44,1.35 -0.88,2.49 -0.19,4.17 310.04,776.94 292.14,735.29 296.15,735.96 1.62,0.28 3.27,-0.32 4.34,-1.58 l 480.72,-557.23 c 2.3,-2.7 0.92,-6.91 -2.55,-7.69 l -772.91,-176.83 c -2.4,-0.54 -4.82,0.84 -5.56,3.2"
         style="fill:#3d3d3d;fill-opacity:1;fill-rule:nonzero;stroke:none"
         transform="matrix(0.13333333,0,0,-0.13333333,0,489.33333)" />
      <path
         id="path16"
         d="m 1875.7,2909.14 c -746.75,-249.26 -660.67,-220.5 -699.22,-233.48 l 623.78,-390.02 z m -713.1,-235.12 c -2.26,2.53 -1.19,6.54 2.01,7.62 49.41,16.65 -45.76,-15.17 715.18,238.83 3.32,1.11 6.59,-1.65 6.17,-5.05 -81.57,-674.25 -76.22,-640.25 -79.87,-642 -1.46,-0.69 -3.17,-0.59 -4.54,0.26 l -636.74,398.13 c -0.81,0.51 -1.24,1.11 -2.21,2.21"
         style="fill:#3d3d3d;fill-opacity:1;fill-rule:nonzero;stroke:none"
         transform="matrix(0.13333333,0,0,-0.13333333,0,489.33333)" />
      <path
         id="path17"
         d="m 2480.63,2575.33 c -19.84,-24.68 -16.58,-60.25 7.28,-79.45 23.86,-19.2 59.3,-14.76 79.16,9.92 19.85,24.67 16.6,60.24 -7.28,79.44 -23.87,19.2 -59.31,14.76 -79.16,-9.91"
         style="fill:#3e3e3e;fill-opacity:1;fill-rule:nonzero;stroke:none"
         transform="matrix(0.13333333,0,0,-0.13333333,0,489.33333)" />
      <path
         id="path18"
         d="m 1305.58,1097.35 366.5,-644.952 425,580.892 z m -12.64,3.09 c -0.86,1.52 -0.81,3.41 0.12,4.88 0.95,1.48 2.63,2.31 4.37,2.16 l 808.84,-65.46 c 3.68,-0.28 5.62,-4.52 3.43,-7.49 L 1675.68,441.301 c -1.46,-2.469 -4.78,-3.102 -7.04,-1.281 -1.12,0.89 16.28,-29.348 -375.7,660.42"
         style="fill:#3d3d3d;fill-opacity:1;fill-rule:nonzero;stroke:none"
         transform="matrix(0.13333333,0,0,-0.13333333,0,489.33333)" />
      <path
         id="path19"
         d="m 2526.59,2529.38 -121.87,-751.59 588.09,197.31 z m -130.84,-762.15 c -3.16,2.68 -8.77,-39.84 123.15,773.83 0.65,3.97 5.68,5.38 8.28,2.28 3.78,-4.49 475.59,-565.53 476.48,-566.24 2.03,-1.63 2.34,-4.6 0.71,-6.64 -0.83,-1.02 -1.42,-1.93 -2.93,-2.43 -33.09,-11.1 -572,-191.92 -601.12,-201.68 -1.58,-0.53 -3.32,-0.19 -4.57,0.88"
         style="fill:#3d3d3d;fill-opacity:1;fill-rule:nonzero;stroke:none"
         transform="matrix(0.13333333,0,0,-0.13333333,0,489.33333)" />
      <path
         id="path20"
         d="m 1884.88,2908.46 -74.98,-623.88 702.61,256.71 z m -85.29,-630.39 76.76,638.66 c 0.41,3.37 4.15,5.24 7.08,3.52 l 642.52,-375.87 c 3.46,-2.02 2.96,-7.15 -0.76,-8.51 -761.25,-278.13 -720.63,-264.61 -723.83,-262.07 -1.28,1.01 -1.97,2.62 -1.77,4.27"
         style="fill:#3d3d3d;fill-opacity:1;fill-rule:nonzero;stroke:none"
         transform="matrix(0.13333333,0,0,-0.13333333,0,489.33333)" />
      <path
         id="path21"
         d="m 1119.94,2714.04 c -19.71,-24.49 -15.1,-60.91 10.3,-81.34 25.39,-20.43 61.96,-17.13 81.66,7.36 19.71,24.5 15.1,60.92 -10.3,81.35 -25.39,20.43 -61.95,17.14 -81.66,-7.37"
         style="fill:#3e3e3e;fill-opacity:1;fill-rule:nonzero;stroke:none"
         transform="matrix(0.13333333,0,0,-0.13333333,0,489.33333)" />
      <path
         id="path22"
         d="m 2406.75,1768.77 469.47,-544.22 c 1.16,7.28 117.38,731.8 118.96,741.89 z m 468.95,-558.09 c -508.28,589.22 -482.71,557.81 -481.68,561.59 0.42,1.51 1.56,2.72 3.05,3.23 628.74,211.21 601.24,202.15 602.57,202.1 1.55,-0.05 3.44,0.09 4.95,-1.77 0.88,-1.04 1.25,-2.4 1.03,-3.73 -0.2,-1.35 -121.27,-759.57 -122.66,-761.31 -1.84,-2.28 -5.32,-2.36 -7.26,-0.11"
         style="fill:#3d3d3d;fill-opacity:1;fill-rule:nonzero;stroke:none"
         transform="matrix(0.13333333,0,0,-0.13333333,0,489.33333)" />
      <path
         id="path23"
         d="M 1121.89,1878.51 583.027,1409.83 1290.43,1111.1 Z M 570.395,1409.07 c 0.312,1.42 0.445,2.68 1.8,3.85 l 548.985,477.49 c 1.16,1.02 2.75,1.4 4.24,1.02 1.5,-0.37 2.72,-1.45 3.27,-2.9 l 1.46,-3.83 c 0.2,-0.51 171.36,-779.95 171.48,-780.49 0.82,-3.75 -2.93,-6.85 -6.46,-5.36 l -721.994,304.86 c -2.113,0.91 -3.254,3.16 -2.781,5.36"
         style="fill:#3d3d3d;fill-opacity:1;fill-rule:nonzero;stroke:none"
         transform="matrix(0.13333333,0,0,-0.13333333,0,489.33333)" />
      <path
         id="path24"
         d="M 1160.66,2666.45 C 1020.28,2550.6 640.527,2237.19 596.352,2200.7 L 1120.38,1894.87 Z M 584.734,2197.5 c -1.531,2.01 -1.187,4.88 0.758,6.5 52.207,43.11 515.508,425.46 577.428,476.58 3.17,2.6 7.95,0.2 7.73,-3.89 l -41.24,-790.05 c -0.09,-1.64 -1.03,-3.13 -2.47,-3.9 -1.45,-0.79 -3.21,-0.77 -4.63,0.07 l -535.455,312.48 c -1,0.58 -1.41,1.27 -2.121,2.21"
         style="fill:#3d3d3d;fill-opacity:1;fill-rule:nonzero;stroke:none"
         transform="matrix(0.13333333,0,0,-0.13333333,0,489.33333)" />
      <path
         id="path25"
         d="m 1836.02,2952.59 c -20.31,-25.26 -16.55,-61.99 8.39,-82.06 24.94,-20.07 61.63,-15.87 81.95,9.38 20.31,25.26 16.55,62 -8.4,82.06 -24.94,20.06 -61.63,15.87 -81.94,-9.38"
         style="fill:#3e3e3e;fill-opacity:1;fill-rule:nonzero;stroke:none"
         transform="matrix(0.13333333,0,0,-0.13333333,0,489.33333)" />
      <path
         id="path26"
         d="m 593.141,2191.78 -13.45,-773 536.759,467.12 z m -23.075,-783.44 13.758,791.68 c 0.063,3.6 3.985,5.81 7.11,3.99 l 535.956,-313.28 c 2.79,-1.63 3.16,-5.51 0.72,-7.63 L 577.891,1404.68 c -1.407,-1.21 -3.403,-1.5 -5.098,-0.71 -1.715,0.81 -2.758,2.53 -2.727,4.37"
         style="fill:#3d3d3d;fill-opacity:1;fill-rule:nonzero;stroke:none"
         transform="matrix(0.13333333,0,0,-0.13333333,0,489.33333)" />
      <path
         id="path27"
         d="M 2423.01,3218.98 1890,2916.05 l 627.93,-366.7 z m -544.92,-306.49 c -2.56,2.05 -2.29,6.02 0.51,7.72 8.87,5.37 -35.59,-20.01 545.78,310.42 2.91,1.65 6.55,-0.15 7.02,-3.44 l 97.26,-686.18 c 0.25,-1.79 -0.55,-3.58 -2.04,-4.59 -1.5,-1.01 -3.45,-1.07 -5.02,-0.15 l -641.32,374.53 c -0.46,0.26 -1.72,1.31 -2.19,1.69"
         style="fill:#3d3d3d;fill-opacity:1;fill-rule:nonzero;stroke:none"
         transform="matrix(0.13333333,0,0,-0.13333333,0,489.33333)" />
      <path
         id="path28"
         d="m 2954.38,2010.71 c -20.74,-25.79 -16.71,-63.48 9.03,-84.18 25.75,-20.7 63.43,-16.58 84.17,9.2 20.75,25.79 16.7,63.49 -9.04,84.19 -25.73,20.71 -63.42,16.58 -84.16,-9.21"
         style="fill:#3e3e3e;fill-opacity:1;fill-rule:nonzero;stroke:none"
         transform="matrix(0.13333333,0,0,-0.13333333,0,489.33333)" />
      <path
         id="path29"
         d="m 2831.27,1252.49 c -20.43,-25.39 -15.45,-63.3 11.12,-84.67 26.56,-21.37 64.66,-18.11 85.09,7.3 20.42,25.39 15.45,63.29 -11.12,84.67 -26.57,21.36 -64.67,18.1 -85.09,-7.3"
         style="fill:#3e3e3e;fill-opacity:1;fill-rule:nonzero;stroke:none"
         transform="matrix(0.13333333,0,0,-0.13333333,0,489.33333)" />
      <path
         id="path30"
         d="m 2114.38,1034.17 355.51,-459.111 399.04,631.741 z m -11.98,0.08 c -2.12,2.72 -0.69,6.72 2.67,7.48 l 772.92,176.84 c 4.11,0.92 7.29,-3.59 5.05,-7.13 -0.07,-0.1 -408.99,-647.51 -409.06,-647.6 -1.63,-2.031 -4.62,-2.352 -6.65,-0.711 -0.7,0.551 -362.16,467.531 -364.93,471.121"
         style="fill:#3d3d3d;fill-opacity:1;fill-rule:nonzero;stroke:none"
         transform="matrix(0.13333333,0,0,-0.13333333,0,489.33333)" />
      <path
         id="path31"
         d="M 584.211,1399.44 900.625,694.762 C 911.926,706.57 1282.31,1094.3 1288.97,1101.34 Z M 894.887,684.48 570.664,1406.55 c -1.762,3.91 2.211,7.95 6.152,6.28 L 1298.21,1107.7 c 2.32,-1 3.47,-3.65 2.59,-6.01 -0.68,-1.82 -0.84,-2.49 -1.65,-3.35 -11.71,-12.36 -382.888,-400.918 -396.537,-415.192 -1.082,-1.148 -2.668,-1.66 -4.215,-1.398 -1.543,0.262 -2.867,1.289 -3.511,2.73"
         style="fill:#3d3d3d;fill-opacity:1;fill-rule:nonzero;stroke:none"
         transform="matrix(0.13333333,0,0,-0.13333333,0,489.33333)" />
      <path
         id="path32"
         d="m 2532.97,2536.45 465.62,-553.55 171.5,615.03 z m -13.02,0.81 c -2.45,2.91 -0.62,7.38 3.17,7.74 l 652.91,62.99 c 1.56,0.16 3.09,-0.46 4.08,-1.66 1.01,-1.2 1.35,-2.8 0.93,-4.31 -183.96,-659.7 -175.71,-630.87 -176.61,-631.98 -1.63,-2.04 -4.6,-2.36 -6.63,-0.73 -0.6,0.47 -474.21,563.62 -477.85,567.95"
         style="fill:#3d3d3d;fill-opacity:1;fill-rule:nonzero;stroke:none"
         transform="matrix(0.13333333,0,0,-0.13333333,0,489.33333)" />
      <path
         id="path33"
         d="M 2106,1029.46 1682.12,450.109 c 777.47,119.75 643.3,99.071 779.69,120.161 z m -438.23,-582.96 434.31,593.62 c 1.86,2.53 5.63,2.56 7.54,0.1 l 364.12,-469.911 c 0.94,-1.207 1.23,-2.829 0.77,-4.297 -0.46,-1.481 -1.61,-2.633 -3.08,-3.09 l -4.07,-1.293 c -1.35,-0.43 -521.25,-80.418 -795.06,-122.59 -4.15,-0.641 -7.01,4.082 -4.53,7.461"
         style="fill:#3d3d3d;fill-opacity:1;fill-rule:nonzero;stroke:none"
         transform="matrix(0.13333333,0,0,-0.13333333,0,489.33333)" />
      <path
         id="path34"
         d="m 1458.4,3323.94 -283.57,-639.31 697.63,233.39 z M 1161.85,2678.66 1452.52,3334 c 0.63,1.42 1.91,2.43 3.43,2.73 1.52,0.28 3.09,-0.19 4.2,-1.27 l 424.43,-416.1 c 2.52,-2.47 1.54,-6.73 -1.8,-7.86 l -715.12,-239.24 c -3.89,-1.29 -7.47,2.65 -5.81,6.4"
         style="fill:#3d3d3d;fill-opacity:1;fill-rule:nonzero;stroke:none"
         transform="matrix(0.13333333,0,0,-0.13333333,0,489.33333)" />
      <path
         id="path35"
         d="m 538.203,2240.48 c -21.328,-26.52 -16.152,-66.08 11.563,-88.38 27.714,-22.29 67.464,-18.87 88.797,7.64 21.324,26.51 16.14,66.07 -11.571,88.36 -27.715,22.29 -67.465,18.88 -88.789,-7.62"
         style="fill:#3e3e3e;fill-opacity:1;fill-rule:nonzero;stroke:none"
         transform="matrix(0.13333333,0,0,-0.13333333,0,489.33333)" />
      <path
         id="path36"
         d="m 525.574,1447.84 c -22.113,-27.49 -18.148,-67.4 8.867,-89.13 27.008,-21.73 66.844,-17.05 88.957,10.44 22.122,27.5 18.157,67.4 -8.855,89.13 -27.016,21.73 -66.848,17.05 -88.969,-10.44"
         style="fill:#3e3e3e;fill-opacity:1;fill-rule:nonzero;stroke:none"
         transform="matrix(0.13333333,0,0,-0.13333333,0,489.33333)" />
      <path
         id="path37"
         d="M 1295.63,1095.3 C 883.828,664.02 946.488,729.66 907.398,688.66 L 1661.72,452.039 Z m -400.903,-409.589 -0.094,0.828 c -0.141,1.391 0.324,2.77 1.273,3.77 45.285,47.492 -20.191,-21.098 397.264,416.111 2.19,2.27 5.96,1.81 7.53,-0.93 l 375.17,-659.209 c 2.12,-3.722 -1.43,-8.133 -5.52,-6.859 L 898.012,681.719 c -1.782,0.562 -3.078,2.121 -3.285,3.992"
         style="fill:#3d3d3d;fill-opacity:1;fill-rule:nonzero;stroke:none"
         transform="matrix(0.13333333,0,0,-0.13333333,0,489.33333)" />
      <path
         id="path38"
         d="m 587.75,2861.16 5.438,-651.27 c 557.122,459.69 460.352,379.82 563.492,465.03 z m -3.926,-661.27 -5.582,667.77 c -0.019,3.22 3.129,5.53 6.196,4.52 4.75,-1.55 581.892,-190.45 583.372,-191 3.38,-1.26 4.17,-5.69 1.42,-8.03 -6.62,-5.64 5.07,4.06 -86.21,-71.35 L 591.555,2196.29 c -1.414,-1.17 -3.356,-1.41 -5,-0.63 -1.649,0.76 -2.723,2.41 -2.731,4.23"
         style="fill:#3d3d3d;fill-opacity:1;fill-rule:nonzero;stroke:none"
         transform="matrix(0.13333333,0,0,-0.13333333,0,489.33333)" />
      <path
         id="path39"
         d="m 1621.74,483.73 c -22.73,-28.25 -18.82,-69.109 8.7,-91.25 27.54,-22.16 68.28,-17.218 91,11.051 22.73,28.25 18.84,69.11 -8.7,91.258 -27.53,22.141 -68.27,17.191 -91,-11.059"
         style="fill:#3e3e3e;fill-opacity:1;fill-rule:nonzero;stroke:none"
         transform="matrix(0.13333333,0,0,-0.13333333,0,489.33333)" />
      <path
         id="path40"
         d="m 2417.98,608.82 c -22.23,-27.648 -16.87,-68.871 11.98,-92.078 28.84,-23.203 70.25,-19.613 92.49,8.039 22.23,27.641 16.88,68.86 -11.97,92.059 -28.84,23.211 -70.26,19.621 -92.5,-8.02"
         style="fill:#3e3e3e;fill-opacity:1;fill-rule:nonzero;stroke:none"
         transform="matrix(0.13333333,0,0,-0.13333333,0,489.33333)" />
      <path
         id="path41"
         d="m 3004.2,1964.76 -118.37,-739.97 556.93,429.66 z m -129.59,-750.25 121.45,759.25 c 0.55,3.44 4.54,5.13 7.4,3.11 l 449.97,-318.39 c 2.61,-1.86 2.66,-5.67 0.17,-7.6 l -571.45,-440.85 c -1.52,-1.18 -3.62,-1.32 -5.29,-0.33 -1.67,1 -2.55,2.91 -2.25,4.81"
         style="fill:#3d3d3d;fill-opacity:1;fill-rule:nonzero;stroke:none"
         transform="matrix(0.13333333,0,0,-0.13333333,0,489.33333)" />
      <path
         id="path42"
         d="m 138.605,1954.17 431.684,-532.84 13.164,770.82 z m -10.929,-0.83 -0.367,1.43 c -0.539,2.1 0.425,4.31 2.347,5.34 l 456.434,244.17 c 3.183,1.71 7.008,-0.65 6.945,-4.25 L 579.52,1408.58 c 0.289,-4.07 -4.415,-6.6 -7.633,-4.05 -0.871,0.69 -443.789,547.17 -444.211,548.81"
         style="fill:#3d3d3d;fill-opacity:1;fill-rule:nonzero;stroke:none"
         transform="matrix(0.13333333,0,0,-0.13333333,0,489.33333)" />
      <path
         id="path43"
         d="m 847.844,727.531 c -24.215,-30.109 -20.934,-72.949 7.336,-95.691 28.281,-22.75 70.832,-16.77 95.047,13.34 24.211,30.082 20.929,72.941 -7.34,95.679 -28.274,22.743 -70.832,16.77 -95.043,-13.328"
         style="fill:#3e3e3e;fill-opacity:1;fill-rule:nonzero;stroke:none"
         transform="matrix(0.13333333,0,0,-0.13333333,0,489.33333)" />
      <path
         id="path44"
         d="m 2878.34,1204 -398.15,-630.34 624.75,127.25 z m -412.07,-634.648 408.78,647.128 c 2.01,3.17 6.75,2.85 8.3,-0.58 l 232.63,-516.49 c 1.24,-2.781 -0.41,-5.98 -3.37,-6.59 L 2471.22,562.191 c -4.08,-0.832 -7.14,3.641 -4.95,7.161"
         style="fill:#3d3d3d;fill-opacity:1;fill-rule:nonzero;stroke:none"
         transform="matrix(0.13333333,0,0,-0.13333333,0,489.33333)" />
      <path
         id="path45"
         d="M 1446.8,3321.27 C 688.203,2918.85 806.105,2981.44 594.41,2869 l 569.35,-186.21 z M 579.641,2865 c -0.672,1.05 -1.661,2.39 -1.106,4.53 0.336,1.28 1.192,2.36 2.36,2.98 l 165.449,87.88 708.096,375.64 c 1.78,0.94 3.96,0.66 5.43,-0.72 1.48,-1.37 1.92,-3.53 1.11,-5.37 l -290.31,-654.89 c -0.98,-2.2 -3.48,-3.32 -5.79,-2.57 l -582.735,190.59 c -1.024,0.32 -1.911,1 -2.504,1.93"
         style="fill:#3d3d3d;fill-opacity:1;fill-rule:nonzero;stroke:none"
         transform="matrix(0.13333333,0,0,-0.13333333,0,489.33333)" />
      <path
         id="path46"
         d="M 574.34,1397.4 335.434,917.582 890.258,695.379 Z M 324.688,917.199 570.328,1410.55 c 1.777,3.55 6.899,3.45 8.535,-0.17 L 903.688,688.582 c 0.792,-1.762 0.433,-3.82 -0.907,-5.211 -1.328,-1.402 -3.367,-1.84 -5.152,-1.109 L 327.164,910.699 c -2.555,1.031 -3.703,4.031 -2.476,6.5"
         style="fill:#3d3d3d;fill-opacity:1;fill-rule:nonzero;stroke:none"
         transform="matrix(0.13333333,0,0,-0.13333333,0,489.33333)" />
      <path
         id="path47"
         d="m 2433.33,3214.88 94.52,-669.63 637.14,61.47 z m 85.79,-675.43 -96.85,686.23 c -0.6,4.3 4.46,7.07 7.7,4.3 l 749.77,-623.24 c 3.23,-2.68 1.61,-7.94 -2.57,-8.34 l -652.92,-62.99 c -2.52,-0.24 -4.78,1.55 -5.13,4.04"
         style="fill:#3d3d3d;fill-opacity:1;fill-rule:nonzero;stroke:none"
         transform="matrix(0.13333333,0,0,-0.13333333,0,489.33333)" />
      <path
         id="path48"
         d="M 2461.7,560.719 C 1637.95,434.25 1759.28,452.891 1684.75,441.379 l 544.36,-320.93 z M 1667.24,442.16 c -1.31,2.84 0.48,6.149 3.58,6.641 91.21,14.078 -30.37,-4.61 798.74,122.699 3.84,0.582 6.7,-3.469 4.9,-6.891 l -239.3,-452.961 c -1.26,-2.367 -4.27,-3.226 -6.58,-1.859 L 1669.4,439.441 c -1.19,0.731 -1.63,1.547 -2.16,2.719"
         style="fill:#3d3d3d;fill-opacity:1;fill-rule:nonzero;stroke:none"
         transform="matrix(0.13333333,0,0,-0.13333333,0,489.33333)" />
      <path
         id="path49"
         d="m 1470.34,3325.55 411.7,-403.7 c 546.6,310.51 459.31,260.91 530.44,301.38 z m 407.62,-412.94 -423.97,415.73 c -3.19,3.13 -0.63,8.55 3.82,8.07 l 969,-105.23 c 5.17,-0.54 6.21,-5.91 3.17,-8.47 -2.25,-1.87 30.47,16.86 -546.37,-310.83 -1.79,-1.02 -4.09,-0.77 -5.65,0.73"
         style="fill:#3d3d3d;fill-opacity:1;fill-rule:nonzero;stroke:none"
         transform="matrix(0.13333333,0,0,-0.13333333,0,489.33333)" />
      <path
         id="path50"
         d="M 908.539,678.41 1145.86,196.59 c 493.34,236.531 402.69,193.058 513.47,246.23 z M 1139.44,188.219 895.188,684.141 c -1.833,3.711 1.691,7.828 5.656,6.589 L 1672.54,448.582 c 1.27,-0.402 2.32,-1.312 2.88,-2.531 l 0.28,-0.602 c 1.06,-2.32 0.08,-5.078 -2.23,-6.207 -15.19,-7.472 17.88,8.399 -527.74,-253.183 -2.35,-1.129 -5.14,-0.149 -6.29,2.16"
         style="fill:#3d3d3d;fill-opacity:1;fill-rule:nonzero;stroke:none"
         transform="matrix(0.13333333,0,0,-0.13333333,0,489.33333)" />
      <path
         id="path51"
         d="M 3176.61,2585.6 C 2993.71,1931.66 3014.6,2006.46 3005.9,1975.03 l 436.49,-308.36 z m -179.08,-616.09 c -1.46,1.18 -2.09,3.13 -1.59,4.94 9.75,35.28 -12.23,-43.43 176.05,629.7 0.56,2.03 2.41,3.44 4.53,3.45 2.11,0.01 3.96,-1.38 4.56,-3.41 l 274.12,-947.84 c 1.24,-4.28 -3.62,-7.74 -7.27,-5.17 l -448.77,317.04 c -0.18,0.14 -1.43,1.14 -1.63,1.29"
         style="fill:#3d3d3d;fill-opacity:1;fill-rule:nonzero;stroke:none"
         transform="matrix(0.13333333,0,0,-0.13333333,0,489.33333)" />
      <path
         id="path52"
         d="m 2372.71,3270.46 c -25.63,-31.86 -22.09,-77.26 7.93,-101.41 30.01,-24.14 75.12,-17.88 100.75,13.99 25.64,31.86 22.09,77.26 -7.93,101.41 -30.01,24.14 -75.12,17.89 -100.75,-13.99"
         style="fill:#3e3e3e;fill-opacity:1;fill-rule:nonzero;stroke:none"
         transform="matrix(0.13333333,0,0,-0.13333333,0,489.33333)" />
      <path
         id="path53"
         d="m 2884.88,1212.49 226.26,-502.349 329.54,931.139 z m -10.15,-0.47 c -0.9,1.99 -0.3,4.34 1.43,5.68 l 571.43,440.85 c 3.71,2.86 8.91,-0.88 7.34,-5.31 -2.38,-6.72 -338.84,-957.861 -339.56,-958.76 -1.64,-2.031 -4.6,-2.351 -6.63,-0.718 -1.42,1.117 12.51,-29.09 -234.01,518.258"
         style="fill:#3d3d3d;fill-opacity:1;fill-rule:nonzero;stroke:none"
         transform="matrix(0.13333333,0,0,-0.13333333,0,489.33333)" />
      <path
         id="path54"
         d="m 1399.16,3378.8 c -25.13,-31.25 -19.71,-77.32 12.1,-102.91 31.81,-25.58 77.97,-21.01 103.1,10.24 25.13,31.23 19.71,77.3 -12.1,102.89 -31.82,25.59 -77.97,21 -103.1,-10.22"
         style="fill:#3e3e3e;fill-opacity:1;fill-rule:nonzero;stroke:none"
         transform="matrix(0.13333333,0,0,-0.13333333,0,489.33333)" />
      <path
         id="path55"
         d="m 3121.61,2647.86 c -25.95,-32.26 -22.22,-78.33 8.34,-102.91 30.53,-24.57 76.34,-18.36 102.3,13.91 25.96,32.25 22.22,78.34 -8.34,102.91 -30.55,24.58 -76.35,18.36 -102.3,-13.91"
         style="fill:#3e3e3e;fill-opacity:1;fill-rule:nonzero;stroke:none"
         transform="matrix(0.13333333,0,0,-0.13333333,0,489.33333)" />
      <path
         id="path56"
         d="M 578.375,2848.24 142.52,1966.43 583.984,2202.98 Z M 127.504,1957.38 578.691,2870.2 c 2.192,4.44 8.914,2.91 8.954,-2.05 l 5.808,-667.95 c 0.02,-1.75 -0.937,-3.37 -2.484,-4.2 L 133.977,1951.13 c -4.039,-2.17 -8.493,2.15 -6.473,6.25"
         style="fill:#3d3d3d;fill-opacity:1;fill-rule:nonzero;stroke:none"
         transform="matrix(0.13333333,0,0,-0.13333333,0,489.33333)" />
      <path
         id="path57"
         d="m 2441.83,3220.27 723.8,-601.79 -209.33,546.73 z m 731.7,-620.66 c -0.76,0.61 -740.3,615.62 -749.32,622.87 -2.94,2.36 -2.05,7.05 1.55,8.18 1.1,0.35 1.78,0.64 2.94,0.51 l 531.49,-56.87 c 1.76,-0.19 3.26,-1.35 3.91,-3 l 216.7,-566.01 c 0.73,-1.58 0.57,-3.52 -0.6,-4.97 -1.84,-2.28 -5.1,-2.17 -6.67,-0.71"
         style="fill:#3d3d3d;fill-opacity:1;fill-rule:nonzero;stroke:none"
         transform="matrix(0.13333333,0,0,-0.13333333,0,489.33333)" />
      <path
         id="path58"
         d="m 520.574,2918.38 c -25.484,-31.68 -18.293,-79.79 16.071,-107.43 34.363,-27.64 82.875,-24.36 108.371,7.33 25.488,31.68 18.297,79.78 -16.067,107.42 -34.363,27.64 -82.89,24.36 -108.375,-7.32"
         style="fill:#3e3e3e;fill-opacity:1;fill-rule:nonzero;stroke:none"
         transform="matrix(0.13333333,0,0,-0.13333333,0,489.33333)" />
      <path
         id="path59"
         d="m 3390.65,1703.32 c -26.03,-32.35 -20.1,-80.31 13.23,-107.14 33.35,-26.81 81.47,-22.33 107.49,10.02 26.03,32.36 20.1,80.31 -13.24,107.14 -33.35,26.81 -81.46,22.32 -107.48,-10.02"
         style="fill:#3e3e3e;fill-opacity:1;fill-rule:nonzero;stroke:none"
         transform="matrix(0.13333333,0,0,-0.13333333,0,489.33333)" />
      <path
         id="path60"
         d="m 2023.65,3567.7 c -548.84,-232.88 -488.21,-207.15 -549.27,-233.09 l 937.97,-101.93 z M 1453,3329.75 l -0.28,0.6 c -1.07,2.36 -0.03,5.17 2.33,6.26 0.08,0.03 1.84,0.85 1.93,0.87 75.28,31.99 -15.25,-6.44 565.68,240.07 1.66,0.7 3.59,0.4 4.93,-0.78 l 402.44,-346.85 c 3.5,-3.02 1.02,-8.78 -3.6,-8.28 l -969.63,105.38 c -1.67,0.18 -3.1,1.22 -3.8,2.73"
         style="fill:#3d3d3d;fill-opacity:1;fill-rule:nonzero;stroke:none"
         transform="matrix(0.13333333,0,0,-0.13333333,0,489.33333)" />
      <path
         id="path61"
         d="M 2473.36,563.051 2243.8,128.039 3088.44,687.961 Z M 2226.78,116.07 2466.05,569.441 c 0.66,1.25 1.85,2.141 3.23,2.43 l 641.04,130.168 c 2.2,0.461 4.43,-0.738 5.3,-2.809 0.86,-2.089 0.13,-4.5 -1.75,-5.75 L 2233.58,109.922 c -4.05,-2.692 -9.05,1.828 -6.8,6.148"
         style="fill:#3d3d3d;fill-opacity:1;fill-rule:nonzero;stroke:none"
         transform="matrix(0.13333333,0,0,-0.13333333,0,489.33333)" />
      <path
         id="path62"
         d="M 139.648,1937.94 330.945,929.77 569.156,1408.05 Z M 324.281,914.219 126.871,1954.6 c -0.402,2.12 0.695,4.26 2.66,5.17 1.957,0.9 4.297,0.36 5.649,-1.32 l 443.234,-546.8 c 1.164,-1.44 1.387,-3.44 0.563,-5.09 -0.282,-0.56 -245.965,-493.958 -246.356,-494.439 -1.637,-2.039 -4.609,-2.351 -6.644,-0.723 0,0 -1.348,0.942 -1.696,2.821"
         style="fill:#3d3d3d;fill-opacity:1;fill-rule:nonzero;stroke:none"
         transform="matrix(0.13333333,0,0,-0.13333333,0,489.33333)" />
      <path
         id="path63"
         d="m 66.668,2007.26 c -27.6172,-34.33 -21.1485,-85.36 14.4297,-113.98 35.5903,-28.63 86.8163,-24.01 114.4333,10.32 27.61,34.32 21.157,85.37 -14.426,113.99 -35.582,28.62 -86.8277,23.99 -114.437,-10.33"
         style="fill:#3e3e3e;fill-opacity:1;fill-rule:nonzero;stroke:none"
         transform="matrix(0.13333333,0,0,-0.13333333,0,489.33333)" />
      <path
         id="path64"
         d="m 3046.29,749.98 c -26.78,-33.289 -19.16,-83.859 17.03,-112.96 36.18,-29.11 87.2,-25.719 113.99,7.57 26.76,33.269 19.14,83.859 -17.04,112.961 -36.17,29.097 -87.21,25.699 -113.98,-7.571"
         style="fill:#3e3e3e;fill-opacity:1;fill-rule:nonzero;stroke:none"
         transform="matrix(0.13333333,0,0,-0.13333333,0,489.33333)" />
      <path
         id="path65"
         d="M 1671.55,438.582 1161.81,193.77 2210.85,120.34 Z M 1141.64,194.57 1669.72,448.191 c 1.43,0.7 3.08,0.629 4.45,-0.171 l 558.74,-329.719 c 1.9,-1.11 2.77,-3.391 2.1,-5.469 -0.63,-2.102 -2.64,-3.473 -4.83,-3.312 l -1086.83,76.082 c -4.81,0.339 -6.07,6.867 -1.71,8.968"
         style="fill:#3d3d3d;fill-opacity:1;fill-rule:nonzero;stroke:none"
         transform="matrix(0.13333333,0,0,-0.13333333,0,489.33333)" />
      <path
         id="path66"
         d="m 1000.54,3377.82 -399.216,-494.9 840.006,445.97 z m -421.028,-512.9 c -1.43,1.72 -1.446,4.22 -0.035,5.97 l 415.328,514.88 c 1.015,1.26 2.597,1.91 4.203,1.74 l 458.582,-50.91 c 2.06,-0.23 3.73,-1.78 4.12,-3.81 0.38,-2.04 -0.59,-4.09 -2.42,-5.06 L 585.371,2863.75 c -1.992,-1.05 -4.441,-0.56 -5.859,1.17"
         style="fill:#3d3d3d;fill-opacity:1;fill-rule:nonzero;stroke:none"
         transform="matrix(0.13333333,0,0,-0.13333333,0,489.33333)" />
      <path
         id="path67"
         d="M 352.078,901.09 1128.76,209.91 895.984,682.512 Z m -26.355,10.512 c -1.774,1.418 -2.278,3.918 -1.192,5.918 1.082,2 3.434,2.96 5.61,2.269 0.269,-0.098 3.961,-1.269 4.23,-1.367 L 901.184,690.609 c 1.086,-0.429 1.964,-1.25 2.476,-2.308 L 1147.78,192.68 c 0.96,-1.641 0.87,-3.758 -0.4,-5.348 -1.64,-2.031 -4.61,-2.344 -6.63,-0.723 -0.12,0.102 -809.457,720.512 -815.027,724.993"
         style="fill:#3d3d3d;fill-opacity:1;fill-rule:nonzero;stroke:none"
         transform="matrix(0.13333333,0,0,-0.13333333,0,489.33333)" />
      <path
         id="path68"
         d="m 3185.13,2590.37 263.23,-910.58 62.02,651.88 z m -13.18,11.61 c -0.56,1.98 0.2,4.1 1.91,5.24 1.71,1.14 3.96,1.05 5.57,-0.23 l 338.83,-269.53 c 1.28,-1.03 1.91,-2.59 1.75,-4.14 -68.46,-719.78 -64.25,-680 -65.6,-681.67 -1.63,-2.03 -4.61,-2.36 -6.64,-0.72 -1.84,1.47 14.56,-53.56 -275.82,951.05"
         style="fill:#3d3d3d;fill-opacity:1;fill-rule:nonzero;stroke:none"
         transform="matrix(0.13333333,0,0,-0.13333333,0,489.33333)" />
      <path
         id="path69"
         d="m 264.32,966.801 c -30.316,-37.692 -26.191,-91.332 9.211,-119.809 35.41,-28.48 88.688,-21.023 119.008,16.668 30.313,37.692 26.191,91.328 -9.219,119.809 -35.406,28.481 -88.687,21.011 -119,-16.668"
         style="fill:#3e3e3e;fill-opacity:1;fill-rule:nonzero;stroke:none"
         transform="matrix(0.13333333,0,0,-0.13333333,0,489.33333)" />
      <path
         id="path70"
         d="m 2164.28,167.332 c -28.98,-36.051 -22.64,-89.2539 14.16,-118.8632 36.82,-29.6094 90.14,-24.4102 119.13,11.6406 28.99,36.0195 22.66,89.2426 -14.16,118.8516 -36.79,29.621 -90.14,24.398 -119.13,-11.629"
         style="fill:#3e3e3e;fill-opacity:1;fill-rule:nonzero;stroke:none"
         transform="matrix(0.13333333,0,0,-0.13333333,0,489.33333)" />
      <path
         id="path71"
         d="M 303.355,2650.19 146.16,1995.12 569.805,2852.23 Z m -176.203,-693.8 c 177.301,738.86 167.051,698.72 169.149,700.31 l 283.773,215.18 c 1.727,1.31 4.121,1.26 5.809,-0.09 1.722,-1.38 2.265,-3.79 1.273,-5.77 -0.277,-0.57 -451.312,-913.22 -451.707,-913.7 -1.601,-2 -4.496,-2.35 -6.535,-0.82 -1.457,1.09 -2.215,3 -1.762,4.89"
         style="fill:#3d3d3d;fill-opacity:1;fill-rule:nonzero;stroke:none"
         transform="matrix(0.13333333,0,0,-0.13333333,0,489.33333)" />
      <path
         id="path72"
         d="M 3448.61,1634.85 3127.58,728.242 3503.4,1261.5 Z m -341.4,-935.83 338.85,956.96 c 1.65,4.62 8.43,3.96 9.14,-0.9 L 3513.03,1261 c 0.18,-1.2 -0.11,-2.42 -0.81,-3.4 -2.9,-4.13 -396.85,-563.12 -396.85,-563.12 -1.62,-2 -4.54,-2.339 -6.57,-0.781 -1.57,1.192 -2.29,3.34 -1.59,5.321"
         style="fill:#3d3d3d;fill-opacity:1;fill-rule:nonzero;stroke:none"
         transform="matrix(0.13333333,0,0,-0.13333333,0,489.33333)" />
      <path
         id="path73"
         d="m 1078.96,242 c -30.93,-38.461 -27.08,-92.918 8.61,-121.629 35.7,-28.7108 89.71,-20.8202 120.65,17.649 30.94,38.468 27.09,92.921 -8.61,121.628 -35.69,28.723 -89.71,20.801 -120.65,-17.648"
         style="fill:#3e3e3e;fill-opacity:1;fill-rule:nonzero;stroke:none"
         transform="matrix(0.13333333,0,0,-0.13333333,0,489.33333)" />
      <path
         id="path74"
         d="m 109.898,1552.74 c 0.661,-1.42 200.731,-571.22 202.372,-575.869 L 133.844,1917.67 c -0.516,-7.78 -23.461,-357.17 -23.946,-364.93 z M 324.145,914.551 c -1.899,5.398 -222.196,632.849 -223.332,635.329 -0.641,1.39 -0.454,1.84 -0.036,8.39 l 26.075,397.11 c 0.152,2.37 2.054,4.26 4.421,4.4 2.375,0.14 4.485,-1.5 4.934,-3.84 L 333.176,917.359 c 1.211,-4.379 -3.903,-7.789 -7.477,-4.98 -0.722,0.582 -1.242,1.269 -1.554,2.172"
         style="fill:#3d3d3d;fill-opacity:1;fill-rule:nonzero;stroke:none"
         transform="matrix(0.13333333,0,0,-0.13333333,0,489.33333)" />
      <path
         id="path75"
         d="m 1983.26,3560.52 -952.1,-176.5 425.62,-47.24 z M 994.176,3382.69 c -0.078,2.33 1.562,4.38 3.859,4.81 l 1025.845,190.16 c 2.37,0.43 4.69,-0.97 5.38,-3.28 0.7,-2.31 -0.46,-4.77 -2.68,-5.71 L 1459.33,3327.6 c -1.77,-0.75 24.67,-3.35 -460.951,50.56 -2.324,0.25 -4.117,2.18 -4.203,4.53"
         style="fill:#3d3d3d;fill-opacity:1;fill-rule:nonzero;stroke:none"
         transform="matrix(0.13333333,0,0,-0.13333333,0,489.33333)" />
      <path
         id="path76"
         d="m 2051.41,3556.28 377.74,-325.58 500.1,-53.11 z m 372.69,-333.7 -402.21,346.67 c -1.78,1.52 -2.17,4.11 -0.93,6.08 1.24,1.99 3.74,2.76 5.88,1.83 l 934.71,-403.22 c 2.14,-0.92 3.3,-3.28 2.7,-5.54 -0.59,-2.26 -2.74,-3.74 -5.07,-3.5 l -532.51,56.56 c -0.94,0.1 -1.83,0.47 -2.57,1.12"
         style="fill:#3d3d3d;fill-opacity:1;fill-rule:nonzero;stroke:none"
         transform="matrix(0.13333333,0,0,-0.13333333,0,489.33333)" />
      <path
         id="path77"
         d="m 3180.19,2606.76 c 49.08,-39.99 0.23,-0.97 314.1,-249.91 l -514.88,773.87 z m 30.83,-37.31 c -41.12,33.51 -38.56,31.08 -39.23,32.75 l -216.42,564.88 c -0.87,2.25 0.09,4.79 2.23,5.89 2.14,1.11 4.77,0.43 6.11,-1.58 l 555.03,-834.22 c 1.29,-1.94 0.98,-4.52 -0.74,-6.09 -1.71,-1.58 -4.3,-1.67 -6.13,-0.23 l -300.8,238.57 c -9.22,7.41 9.15,-7.37 -0.05,0.03"
         style="fill:#3d3d3d;fill-opacity:1;fill-rule:nonzero;stroke:none"
         transform="matrix(0.13333333,0,0,-0.13333333,0,489.33333)" />
      <path
         id="path78"
         d="M 2115.11,117.41 1285.05,175.578 1739.74,113 Z m -975.48,73.25 c 0.26,2.531 2.49,4.399 5.03,4.231 l 1086.42,-76.129 c 2.53,-0.172 4.46,-2.321 4.38,-4.84 -0.06,-2.543 -2.13,-4.57 -4.65,-4.594 l -491.31,-5.777 c -0.55,-0.012 -595.28,81.871 -595.81,81.949 -2.54,0.352 -4.32,2.641 -4.06,5.16"
         style="fill:#3d3d3d;fill-opacity:1;fill-rule:nonzero;stroke:none"
         transform="matrix(0.13333333,0,0,-0.13333333,0,489.33333)" />
      <path
         id="path79"
         d="M 3054.68,654.391 2341.1,181.871 2834.09,461.91 Z M 2227.23,110.988 c -1.43,1.871 -1.28,4.504 0.38,6.184 3.3,3.367 -44.33,-28.4923 881.21,584.41 2.08,1.367 4.87,0.906 6.36,-1.07 1.52,-1.992 1.24,-4.801 -0.63,-6.43 L 2839.94,454.48 c -0.56,-0.48 -605.99,-344.359 -606.63,-344.73 -2.06,-1.16 -4.66,-0.629 -6.08,1.238"
         style="fill:#3d3d3d;fill-opacity:1;fill-rule:nonzero;stroke:none"
         transform="matrix(0.13333333,0,0,-0.13333333,0,489.33333)" />
      <path
         id="path80"
         d="m 3455.05,1654.7 48.7,-331.78 5.83,903.46 z m 48.36,-394.46 c -0.13,0.86 -57.91,393.91 -57.82,394.78 l 64.69,678.33 c 0.25,2.51 2.42,4.39 4.95,4.26 2.53,-0.12 4.5,-2.22 4.48,-4.75 -7.31,-1136.5 -6.36,-1072.96 -7.93,-1074.93 -2.61,-3.23 -7.78,-1.73 -8.37,2.31"
         style="fill:#3d3d3d;fill-opacity:1;fill-rule:nonzero;stroke:none"
         transform="matrix(0.13333333,0,0,-0.13333333,0,489.33333)" />
      <path
         id="path81"
         d="m 2891.78,3224.94 c -33.11,-41.17 -29.36,-99.17 8.37,-129.53 37.75,-30.36 95.19,-21.6 128.32,19.58 33.12,41.17 29.37,99.17 -8.37,129.53 -37.74,30.36 -95.19,21.59 -128.32,-19.58"
         style="fill:#3e3e3e;fill-opacity:1;fill-rule:nonzero;stroke:none"
         transform="matrix(0.13333333,0,0,-0.13333333,0,489.33333)" />
      <path
         id="path82"
         d="M 925.199,3299.48 343.98,2692.52 579.281,2870.65 Z M 296.047,2649.83 c -1.645,1.85 -1.594,4.64 0.113,6.42 l 699.094,730.06 c 1.754,1.83 4.641,1.95 6.536,0.28 1.9,-1.67 2.15,-4.54 0.56,-6.51 -2.959,-3.67 -416.182,-516.07 -416.897,-516.62 L 302.426,2649.21 c -1.961,-1.49 -4.738,-1.21 -6.379,0.62"
         style="fill:#3d3d3d;fill-opacity:1;fill-rule:nonzero;stroke:none"
         transform="matrix(0.13333333,0,0,-0.13333333,0,489.33333)" />
      <path
         id="path83"
         d="M 454.07,810.371 990.039,333.52 703.008,613.41 Z M 329.23,908.41 c -1.765,1.422 -2.277,3.899 -1.218,5.891 1.066,2 3.39,2.969 5.551,2.301 1.386,-0.422 2.175,-0.551 3.078,-1.27 0.293,-0.23 372.523,-294.73 372.785,-295 L 1144.56,196.051 c 1.82,-1.672 2.05,-4.512 0.49,-6.449 -1.64,-2.032 -4.62,-2.352 -6.65,-0.723 -3.04,2.441 -798.865,711.242 -809.17,719.531"
         style="fill:#3d3d3d;fill-opacity:1;fill-rule:nonzero;stroke:none"
         transform="matrix(0.13333333,0,0,-0.13333333,0,489.33333)" />
      <path
         id="path84"
         d="m 922.344,3444.93 c -31.762,-39.48 -23.418,-98.92 18.636,-132.75 42.055,-33.84 101.9,-29.25 133.66,10.23 31.77,39.5 23.42,98.93 -18.63,132.76 -42.06,33.83 -101.905,29.24 -133.666,-10.24"
         style="fill:#3e3e3e;fill-opacity:1;fill-rule:nonzero;stroke:none"
         transform="matrix(0.13333333,0,0,-0.13333333,0,489.33333)" />
      <path
         id="path85"
         d="m 1951.22,3632.77 c -33.84,-42.06 -28.34,-102.64 12.28,-135.31 40.62,-32.68 100.97,-25.07 134.81,16.98 33.82,42.06 28.33,102.64 -12.3,135.31 -40.61,32.68 -100.98,25.07 -134.79,-16.98"
         style="fill:#3e3e3e;fill-opacity:1;fill-rule:nonzero;stroke:none"
         transform="matrix(0.13333333,0,0,-0.13333333,0,489.33333)" />
      <path
         id="path86"
         d="m 3438.68,1170.12 -559.71,-669.038 228.97,199.34 z M 2833.71,454.898 c -1.76,1.731 -1.89,4.512 -0.32,6.422 l 670.93,801.97 c 1.61,1.96 4.49,2.27 6.5,0.72 1.98,-1.51 2.44,-4.39 0.99,-6.46 -2.92,-4.14 -396.55,-563.3 -397.22,-563.89 L 2840.12,454.719 c -1.88,-1.641 -4.7,-1.52 -6.41,0.179"
         style="fill:#3d3d3d;fill-opacity:1;fill-rule:nonzero;stroke:none"
         transform="matrix(0.13333333,0,0,-0.13333333,0,489.33333)" />
      <path
         id="path87"
         d="m 136.113,1955.6 -20.433,-318.16 152.711,866.62 z m -35.351,-402.98 c 0.043,0.63 25.922,404.18 26.062,404.8 l 167.977,696.44 c 0.59,2.47 3.054,4.03 5.554,3.52 2.493,-0.53 4.133,-2.94 3.688,-5.45 C 101.059,1500.03 110.316,1550.75 109.176,1549.34 c -1.617,-2.01 -4.547,-2.36 -6.578,-0.77 -1.168,0.87 -1.946,2.39 -1.836,4.05"
         style="fill:#3d3d3d;fill-opacity:1;fill-rule:nonzero;stroke:none"
         transform="matrix(0.13333333,0,0,-0.13333333,0,489.33333)" />
      <path
         id="path88"
         d="m 3440.06,2395.14 c -34.7,-43.14 -28.98,-105.32 12.77,-138.91 41.75,-33.58 103.73,-25.85 138.42,17.28 34.7,43.14 28.98,105.33 -12.77,138.92 -41.75,33.58 -103.72,25.84 -138.42,-17.29"
         style="fill:#3e3e3e;fill-opacity:1;fill-rule:nonzero;stroke:none"
         transform="matrix(0.13333333,0,0,-0.13333333,0,489.33333)" />
      <path
         id="path89"
         d="m 3429.14,1323.96 c -33.25,-41.33 -24.57,-103.51 19.38,-138.86 43.97,-35.38 106.56,-30.54 139.81,10.8 33.25,41.35 24.58,103.52 -19.39,138.89 -43.96,35.35 -106.55,30.51 -139.8,-10.83"
         style="fill:#3e3e3e;fill-opacity:1;fill-rule:nonzero;stroke:none"
         transform="matrix(0.13333333,0,0,-0.13333333,0,489.33333)" />
      <path
         id="path90"
         d="m 2054.64,3554.71 674.44,-550.53 c 236.02,174.82 218.16,161.48 221.27,164.09 z m 671.3,-560.18 -703.5,574.27 c -1.82,1.49 -2.28,4.1 -1.06,6.11 1.23,2.02 3.75,2.82 5.92,1.88 l 933.85,-402.9 c 3.2,-1.37 3.85,-5.69 1.15,-7.96 -0.17,-0.13 -8.14,-6.8 -8.31,-6.93 l -222.24,-164.61 c -1.68,-1.24 -4.04,-1.27 -5.81,0.14"
         style="fill:#3d3d3d;fill-opacity:1;fill-rule:nonzero;stroke:none"
         transform="matrix(0.13333333,0,0,-0.13333333,0,489.33333)" />
      <path
         id="path91"
         d="m 332.477,918.301 c 6.285,-5.059 -22.606,17.781 353.007,-278.629 L 123.336,1515.07 Z m -6.985,-6.512 c -1.637,1.313 11.719,-35.57 -224.379,638.131 -0.8,2.25 0.231,4.76 2.383,5.8 2.152,1.06 4.75,0.33 6.051,-1.69 L 708.676,621.051 c 1.246,-1.961 0.914,-4.512 -0.801,-6.063 -1.703,-1.539 -4.289,-1.636 -6.098,-0.207 L 330.824,907.5 c -6.254,5.031 0.852,-0.68 -5.332,4.289"
         style="fill:#3d3d3d;fill-opacity:1;fill-rule:nonzero;stroke:none"
         transform="matrix(0.13333333,0,0,-0.13333333,0,489.33333)" />
      <path
         id="path92"
         d="m 2795.43,440.082 -1026.17,-326.703 460.45,5.203 z M 1735.21,107.422 c -0.42,2.258 0.82,4.488 2.95,5.308 14.74,5.668 -73.66,-22.8003 1097.42,350.051 2.31,0.739 4.8,-0.39 5.76,-2.59 0.98,-2.23 0.12,-4.832 -1.99,-6.031 C 2202.72,92.3711 2232.93,109.148 2231.04,109.148 l -491.13,-5.566 c -2.28,-0.012 -4.25,1.598 -4.7,3.84"
         style="fill:#3d3d3d;fill-opacity:1;fill-rule:nonzero;stroke:none"
         transform="matrix(0.13333333,0,0,-0.13333333,0,489.33333)" />
      <path
         id="path93"
         d="m 214.707,2721.17 c -34.492,-42.88 -24.734,-107.99 21.793,-145.42 46.531,-37.43 112.215,-33.01 146.707,9.87 34.504,42.89 24.746,107.99 -21.781,145.43 -46.531,37.42 -112.215,33.01 -146.719,-9.88"
         style="fill:#3e3e3e;fill-opacity:1;fill-rule:nonzero;stroke:none"
         transform="matrix(0.13333333,0,0,-0.13333333,0,489.33333)" />
      <path
         id="path94"
         d="m 2000.59,3563.74 c -1040.156,-192.2 -875.26,-161.72 -990.57,-183.1 l 320.64,-227.78 z M 995.707,3379.36 c -3.027,2.43 -1.973,7.3 1.789,8.26 6.984,1.78 -57.906,-10.32 1026.384,190.04 2.24,0.41 4.45,-0.83 5.28,-2.95 0.81,-2.13 0,-4.53 -1.95,-5.73 l -694.27,-425.8 c -1.61,-1 -3.65,-0.93 -5.2,0.17 l -330.431,234.73 c -0.176,0.12 -1.411,1.13 -1.602,1.28"
         style="fill:#3d3d3d;fill-opacity:1;fill-rule:nonzero;stroke:none"
         transform="matrix(0.13333333,0,0,-0.13333333,0,489.33333)" />
      <path
         id="path95"
         d="m 729.125,601.129 416.745,-406.34 566.25,-78.027 C 1667.44,138.77 801.211,565.68 729.125,601.129 Z M 1140.39,186.93 C 680.293,635.559 703.281,613.078 701.406,615.16 c -1.504,1.692 -1.601,4.211 -0.238,6 1.367,1.789 3.82,2.379 5.848,1.391 98.836,-48.61 -20.059,9.949 1033.594,-509.301 1.94,-0.949 2.98,-3.129 2.53,-5.25 l -0.14,-0.641 c -0.52,-2.41 -2.81,-4.007 -5.26,-3.668 l -594.7,81.95 c -1.05,0.14 -1.98,0.621 -2.65,1.289"
         style="fill:#3d3d3d;fill-opacity:1;fill-rule:nonzero;stroke:none"
         transform="matrix(0.13333333,0,0,-0.13333333,0,489.33333)" />
      <path
         id="path96"
         d="m 2736.5,2998.36 756,-639.14 -534.18,803.41 z m 775.41,-667.91 c 0,0 -784.99,663.64 -786.07,664.56 -1.11,0.92 -1.72,2.31 -1.67,3.75 0.04,1.44 0.75,2.78 1.91,3.65 l 230.61,170.75 c 2.16,1.62 5.24,1.09 6.74,-1.17 l 555.22,-835.03 c 1.27,-1.68 1.29,-4.07 -0.1,-5.8 -1.64,-2.03 -4.61,-2.35 -6.64,-0.71"
         style="fill:#3d3d3d;fill-opacity:1;fill-rule:nonzero;stroke:none"
         transform="matrix(0.13333333,0,0,-0.13333333,0,489.33333)" />
      <path
         id="path97"
         d="m 23.2539,1617.22 c -36.3359,-45.18 -29.32421,-111.13 15.6602,-147.32 44.9882,-36.19 110.9099,-28.89 147.2459,16.26 36.324,45.17 29.32,111.12 -15.668,147.31 -44.988,36.18 -110.91,28.89 -147.2381,-16.25"
         style="fill:#3e3e3e;fill-opacity:1;fill-rule:nonzero;stroke:none"
         transform="matrix(0.13333333,0,0,-0.13333333,0,489.33333)" />
      <path
         id="path98"
         d="M 999.199,3377.11 C 278.063,2624.26 386.688,2737.68 319.52,2667.5 l 1001.46,480.68 z M 295.922,2655.49 c 3.324,4.79 -4.582,-3.77 66.988,71.01 l 631.746,659.54 c 1.137,1.18 2.809,1.69 4.414,1.34 2.03,-0.43 2.7,-0.5 3.67,-1.19 l 330.24,-234.96 c 2.94,-2.09 2.54,-6.55 -0.69,-8.1 L 301.852,2648.54 c -4.364,-2.09 -8.688,2.97 -5.93,6.95"
         style="fill:#3d3d3d;fill-opacity:1;fill-rule:nonzero;stroke:none"
         transform="matrix(0.13333333,0,0,-0.13333333,0,489.33333)" />
      <path
         id="path99"
         d="m 1656.56,174.461 c -37.69,-46.859 -31.19,-114.6602 14.53,-151.4415 45.73,-36.7812 113.34,-28.60934 151.04,18.25 37.68,46.8516 31.18,114.6525 -14.54,151.4295 -45.72,36.781 -113.34,28.61 -151.03,-18.238"
         style="fill:#3e3e3e;fill-opacity:1;fill-rule:nonzero;stroke:none"
         transform="matrix(0.13333333,0,0,-0.13333333,0,489.33333)" />
      <path
         id="path100"
         d="m 2749.92,528 c -36.25,-45.059 -26.59,-112.988 21.58,-151.738 48.16,-38.742 116.59,-33.633 152.84,11.429 36.25,45.059 26.58,112.989 -21.59,151.739 -48.16,38.75 -116.58,33.629 -152.83,-11.43"
         style="fill:#3e3e3e;fill-opacity:1;fill-rule:nonzero;stroke:none"
         transform="matrix(0.13333333,0,0,-0.13333333,0,489.33333)" />
      <path
         id="path101"
         d="m 3110.81,1648.07 392.71,-376.97 6.49,1045.72 c -1.72,-2.91 -396.97,-665 -399.2,-668.75 z m -9.52,-3.7 c -1.29,1.53 -1.46,3.71 -0.44,5.44 5.2,8.74 405.97,680.09 409.94,686.75 2.46,4.11 8.82,2.35 8.79,-2.45 l -6.67,-1073.65 c 0.33,-4.08 -4.42,-6.68 -7.68,-4.07 -0.8,0.64 -402.31,386.02 -403.94,387.98"
         style="fill:#3d3d3d;fill-opacity:1;fill-rule:nonzero;stroke:none"
         transform="matrix(0.13333333,0,0,-0.13333333,0,489.33333)" />
      <path
         id="path102"
         d="M 301.645,2638.97 111.84,1559.88 721.27,1863.36 Z M 100.914,1552.31 294.688,2653.98 c 0.347,1.98 1.91,3.53 3.902,3.84 1.976,0.33 3.949,-0.64 4.906,-2.41 l 428.406,-791.86 c 1.278,-2.34 0.344,-5.29 -2.043,-6.47 L 107.676,1547.26 c -1.602,-0.8 -3.512,-0.63 -4.938,0.44 -1.386,1.02 -2.148,2.79 -1.824,4.61"
         style="fill:#3d3d3d;fill-opacity:1;fill-rule:nonzero;stroke:none"
         transform="matrix(0.13333333,0,0,-0.13333333,0,489.33333)" />
      <path
         id="path103"
         d="M 3107.73,1637.77 C 3105.35,1627.3 2847.22,485.121 2845.29,475.539 L 3501.7,1259.74 Z M 2832.39,459.211 c 7.01,34.949 -19.35,-82.871 267.96,1188.809 0.81,3.58 5.22,4.9 7.89,2.37 l 403.21,-386.89 c 1.79,-1.73 1.94,-4.53 0.34,-6.44 L 2840.64,455.25 c -1.38,-1.668 -3.72,-2.16 -5.66,-1.238 -1.96,0.929 -3.01,3.07 -2.59,5.199"
         style="fill:#3d3d3d;fill-opacity:1;fill-rule:nonzero;stroke:none"
         transform="matrix(0.13333333,0,0,-0.13333333,0,489.33333)" />
      <path
         id="path104"
         d="M 619.938,685.539 C 579.895,635.75 585.117,565.082 631.609,527.68 c 46.496,-37.41 116.657,-27.379 156.707,22.422 40.043,49.777 34.821,120.468 -11.679,157.859 -46.492,37.398 -116.653,27.371 -156.699,-22.422"
         style="fill:#3e3e3e;fill-opacity:1;fill-rule:nonzero;stroke:none"
         transform="matrix(0.13333333,0,0,-0.13333333,0,489.33333)" />
      <path
         id="path105"
         d="m 2737.6,2984.68 369.19,-1326 402.18,674.24 z m -13.21,12.25 c -0.56,1.99 0.25,4.12 1.99,5.24 1.75,1.12 4.02,0.93 5.61,-0.37 l 786.15,-664.24 c 1.75,-1.49 2.19,-4.04 1,-6.03 -0.14,-0.22 -410.09,-687.52 -410.25,-687.72 -1.64,-2.03 -4.61,-2.35 -6.65,-0.71 -1.94,1.81 16.32,-61.95 -377.85,1353.83"
         style="fill:#3d3d3d;fill-opacity:1;fill-rule:nonzero;stroke:none"
         transform="matrix(0.13333333,0,0,-0.13333333,0,489.33333)" />
      <path
         id="path106"
         d="M 2024.13,3567.42 1343.69,3150.39 2713.2,3004.94 Z m -697.72,-422.37 -0.28,0.6 c -0.95,2.08 -0.27,4.56 1.62,5.87 0.17,0.1 2.58,1.77 2.75,1.87 l 691.55,423.84 c 1.7,1.04 3.86,0.9 5.42,-0.35 0.03,-0.03 703.94,-574.61 703.99,-574.65 3.61,-2.96 1.18,-8.86 -3.49,-8.37 l -1397.76,148.46 c -1.65,0.18 -3.11,1.21 -3.8,2.73"
         style="fill:#3d3d3d;fill-opacity:1;fill-rule:nonzero;stroke:none"
         transform="matrix(0.13333333,0,0,-0.13333333,0,489.33333)" />
      <path
         id="path107"
         d="M 1869.11,863.609 C 1751.65,155.34 1745,114.898 1745,114.898 L 2823.44,458.91 Z M 1735.57,106.352 c -0.57,1.238 -1.19,2.269 -0.92,3.937 0,0 126.04,760.391 126.12,760.801 0.49,3 3.69,4.769 6.5,3.582 l 971.6,-412.043 c 4.02,-1.707 3.74,-7.527 -0.43,-8.859 L 1741.3,103.809 c -2.28,-0.719 -4.73,0.363 -5.73,2.543"
         style="fill:#3d3d3d;fill-opacity:1;fill-rule:nonzero;stroke:none"
         transform="matrix(0.13333333,0,0,-0.13333333,0,489.33333)" />
      <path
         id="path108"
         d="M 112.156,1549.79 700.094,633.91 c 24.484,1297.8 21.847,1145.85 22.449,1219.68 z m -10.793,-0.68 c -0.722,1.14 -0.941,2.51 -0.586,3.8 0.36,1.3 1.254,2.39 2.453,2.99 l 621.997,309.58 c 3.168,1.59 6.863,-0.77 6.828,-4.26 l -0.473,-59.49 C 708.168,561.25 709.762,617.199 708.215,615.281 c -1.621,-2.011 -4.567,-2.351 -6.606,-0.75 -1.019,0.821 27.18,-42.812 -600.246,934.579"
         style="fill:#3d3d3d;fill-opacity:1;fill-rule:nonzero;stroke:none"
         transform="matrix(0.13333333,0,0,-0.13333333,0,489.33333)" />
      <path
         id="path109"
         d="M 1859.86,864.031 C 1801.95,851.5 767.422,627.469 718.105,616.699 L 1735.82,115.309 Z M 700.406,616.512 c -1.234,2.707 0.297,5.859 3.188,6.578 8.461,2.051 -56.817,-12.121 1161.056,251.66 3.26,0.711 6.21,-2.09 5.68,-5.391 L 1744.1,107.5 c -0.51,-3.121 -3.89,-4.859 -6.74,-3.469 L 702.887,613.648 c -1.438,0.723 -1.93,1.672 -2.481,2.864"
         style="fill:#3d3d3d;fill-opacity:1;fill-rule:nonzero;stroke:none"
         transform="matrix(0.13333333,0,0,-0.13333333,0,489.33333)" />
      <path
         id="path110"
         d="m 2640.58,3070.33 c -41.79,-51.94 -35.98,-125.97 12.96,-165.33 48.96,-39.38 122.49,-29.19 164.28,22.75 41.78,51.95 35.98,125.97 -12.96,165.34 -48.94,39.37 -122.49,29.18 -164.28,-22.76"
         style="fill:#3e3e3e;fill-opacity:1;fill-rule:nonzero;stroke:none"
         transform="matrix(0.13333333,0,0,-0.13333333,0,489.33333)" />
      <path
         id="path111"
         d="m 305.902,2650.64 421.36,-779.08 c 621.658,1325.92 537.288,1145.46 592.958,1266.07 z m -10.672,-0.14 c -0.613,1.14 -0.738,2.47 -0.332,3.71 0.391,1.23 1.286,2.24 2.446,2.81 l 1030.626,494.81 c 3.97,1.91 8.19,-2.22 6.34,-6.24 -66.38,-143.79 -602.306,-1286.58 -603.048,-1287.5 -1.633,-2.03 -4.606,-2.35 -6.637,-0.72 -1.191,0.96 18.773,-35.5 -429.395,793.13"
         style="fill:#3d3d3d;fill-opacity:1;fill-rule:nonzero;stroke:none"
         transform="matrix(0.13333333,0,0,-0.13333333,0,489.33333)" />
      <path
         id="path112"
         d="m 1235.5,3224.02 c -40.82,-50.73 -31.61,-125.88 20.56,-167.86 52.18,-41.96 127.56,-34.86 168.37,15.87 40.81,50.74 31.61,125.9 -20.56,167.87 -52.18,41.96 -127.56,34.86 -168.37,-15.88"
         style="fill:#3e3e3e;fill-opacity:1;fill-rule:nonzero;stroke:none"
         transform="matrix(0.13333333,0,0,-0.13333333,0,489.33333)" />
      <path
         id="path113"
         d="M 732.102,1850.86 709.578,623.961 1855.46,872.75 Z m -32.075,-1232.7 22.817,1243 c 0.066,3.98 4.758,6.11 7.824,3.48 L 1868.76,873.691 c 2.92,-2.543 1.69,-7.351 -2.1,-8.171 L 705.746,613.461 c -2.933,-0.641 -5.781,1.621 -5.719,4.699"
         style="fill:#3d3d3d;fill-opacity:1;fill-rule:nonzero;stroke:none"
         transform="matrix(0.13333333,0,0,-0.13333333,0,489.33333)" />
      <path
         id="path114"
         d="m 3009.11,1724.62 c -42.02,-52.24 -32.86,-129.35 20.47,-172.25 53.33,-42.9 130.62,-35.32 172.63,16.9 42.02,52.23 32.84,129.34 -20.48,172.24 -53.33,42.9 -130.6,35.34 -172.62,-16.89"
         style="fill:#3e3e3e;fill-opacity:1;fill-rule:nonzero;stroke:none"
         transform="matrix(0.13333333,0,0,-0.13333333,0,489.33333)" />
      <path
         id="path115"
         d="m 1340.67,3141.61 659.8,-916.34 c 92.79,99.32 633.16,677.69 718.92,769.51 z m 655.5,-926.52 -669.34,929.59 c -2.39,3.3 0.27,7.88 4.33,7.45 l 1397.81,-148.87 c 3.6,-0.38 5.45,-4.5 3.35,-7.44 -0.3,-0.44 -2.96,-4.21 -3.31,-4.58 -768.13,-822.44 -726.04,-778.31 -729.32,-778.1 -1.4,0.08 -2.69,0.8 -3.52,1.95"
         style="fill:#3d3d3d;fill-opacity:1;fill-rule:nonzero;stroke:none"
         transform="matrix(0.13333333,0,0,-0.13333333,0,489.33333)" />
      <path
         id="path116"
         d="m 3098.08,1636.76 c -41.83,-26.18 -177.8,-111.25 -1222.81,-765.83 L 2833.42,465.02 Z M 1862.7,866.461 c -2.28,1.809 -2.36,5.258 -0.2,7.187 2.72,2.434 -52.8,-32.437 1240.19,777.152 3.55,2.23 8.03,-0.96 7.1,-5.04 L 2841.39,457.422 c -0.64,-2.883 -3.74,-4.453 -6.44,-3.313 L 1864.51,865.23 c -0.76,0.321 -1.18,0.711 -1.81,1.231"
         style="fill:#3d3d3d;fill-opacity:1;fill-rule:nonzero;stroke:none"
         transform="matrix(0.13333333,0,0,-0.13333333,0,489.33333)" />
      <path
         id="path117"
         d="M 1331.11,3138.1 736.445,1868.22 1991.99,2220.75 Z m -607.59,-1275.21 602.45,1286.5 c 1.53,3.27 6.01,3.67 8.11,0.76 709.06,-984.24 671.39,-930.11 670.15,-933.68 -0.5,-1.45 -1.7,-2.57 -3.18,-2.99 L 729.07,1856.34 c -3.879,-1.09 -7.261,2.9 -5.55,6.55"
         style="fill:#3d3d3d;fill-opacity:1;fill-rule:nonzero;stroke:none"
         transform="matrix(0.13333333,0,0,-0.13333333,0,489.33333)" />
      <path
         id="path118"
         d="M 2003.74,2210.87 C 1868.81,858.641 1891.75,1088.82 1870.86,878.629 c 134.03,84.012 1101.92,690.641 1225,767.801 z M 1861.16,869.988 c 0.01,0.332 0.06,7.231 0.09,7.582 141.19,1419.46 133.07,1342.02 135.83,1343.79 1.04,0.68 2.96,2.05 5.51,0.74 L 3106.9,1651.37 c 3.07,-1.59 3.45,-5.83 0.73,-7.93 -6.98,-5.41 4.55,2.07 -80.37,-51.17 L 1868.4,865.949 c -1.46,-0.918 -3.31,-0.969 -4.82,-0.14 -1.55,0.882 -2.43,2.5 -2.42,4.179"
         style="fill:#3d3d3d;fill-opacity:1;fill-rule:nonzero;stroke:none"
         transform="matrix(0.13333333,0,0,-0.13333333,0,489.33333)" />
      <path
         id="path119"
         d="m 627.848,1941.06 c -43.489,-54.06 -34.332,-133.61 20.445,-177.68 54.781,-44.05 134.445,-35.96 177.934,18.11 43.492,54.04 34.336,133.6 -20.442,177.67 -54.785,44.06 -134.445,35.96 -177.937,-18.1"
         style="fill:#3e3e3e;fill-opacity:1;fill-rule:nonzero;stroke:none"
         transform="matrix(0.13333333,0,0,-0.13333333,0,489.33333)" />
      <path
         id="path120"
         d="m 2726.42,2989 c -716.13,-766.25 -636.44,-680.98 -719.27,-769.66 l 1090.54,-562.96 z m -729.61,-774.65 c -4.1,3.3 -0.14,7.36 1.13,8.95 0.78,0.94 705.56,755.04 727.32,778.31 1.16,1.25 2.91,1.76 4.56,1.36 1.67,-0.41 2.98,-1.67 3.45,-3.33 L 3109.7,1648.47 c 1.11,-3.97 -3.06,-7.35 -6.73,-5.46 L 1998.3,2213.28 c -0.55,0.28 -0.95,0.64 -1.49,1.07"
         style="fill:#3d3d3d;fill-opacity:1;fill-rule:nonzero;stroke:none"
         transform="matrix(0.13333333,0,0,-0.13333333,0,489.33333)" />
      <path
         id="path121"
         d="m 1765.63,950.012 c -44.54,-55.364 -35.88,-136.25 19.33,-180.672 55.21,-44.41 136.07,-35.531 180.6,19.832 44.52,55.34 35.87,136.226 -19.33,180.648 -55.22,44.41 -136.08,35.53 -180.6,-19.808"
         style="fill:#3e3e3e;fill-opacity:1;fill-rule:nonzero;stroke:none"
         transform="matrix(0.13333333,0,0,-0.13333333,0,489.33333)" />
      <path
         id="path122"
         d="M 737.25,1859.25 1861.86,879.699 c 85.96,861.261 125.39,1256.261 132.86,1331.911 -10.24,-2.87 -1255.31,-351.67 -1257.47,-352.36 z m -12.648,-1.86 c -2.926,2.35 -2.063,7.02 1.511,8.18 0.149,0.05 9.766,3.17 9.918,3.21 1320.379,369.92 1262.549,354.24 1264.789,353.4 2.54,-0.94 4.2,-2.47 3.93,-5.21 -2.4,-24.35 0.89,8.8 -21.72,-218.28 C 1864.71,813.078 1870.7,868.809 1869.36,867.148 c -1.63,-2.027 -4.61,-2.339 -6.63,-0.718 -2.12,1.711 -1128.152,982.93 -1138.128,990.96"
         style="fill:#3d3d3d;fill-opacity:1;fill-rule:nonzero;stroke:none"
         transform="matrix(0.13333333,0,0,-0.13333333,0,489.33333)" />
      <path
         id="path123"
         d="m 1896.79,2301.1 c -45.93,-57.08 -36.99,-140.48 19.94,-186.28 56.95,-45.81 140.33,-36.66 186.25,20.42 45.91,57.08 36.98,140.48 -19.96,186.28 -56.93,45.81 -140.32,36.66 -186.23,-20.42"
         style="fill:#3e3e3e;fill-opacity:1;fill-rule:nonzero;stroke:none"
         transform="matrix(0.13333333,0,0,-0.13333333,0,489.33333)" />
    </g>
  </g>
</svg>
